<svg width="13" height="16" viewBox="0 0 13 16" fill="none" xmlns="http://www.w3.org/2000/svg">
<g clip-path="url(#clip0_89_606)">
<path d="M6.01714 0.594238H9.60718C9.97457 0.594238 10.3275 0.741774 10.5879 1.00213L12.5521 2.96638C12.8125 3.22674 12.96 3.57967 12.96 3.94706V10.3142C12.96 11.0808 12.338 11.7028 11.5714 11.7028H6.01714C5.25054 11.7028 4.62857 11.0808 4.62857 10.3142V1.98281C4.62857 1.2162 5.25054 0.594238 6.01714 0.594238ZM1.38857 4.2971H3.70286V6.14852H1.85143V13.5542H7.40571V12.6285H9.25714V14.0171C9.25714 14.7837 8.63518 15.4057 7.86857 15.4057H1.38857C0.621964 15.4057 0 14.7837 0 14.0171V5.68567C0 4.91906 0.621964 4.2971 1.38857 4.2971Z" fill="#F7F6F9" fill-opacity="0.82"/>
</g>
<defs>
<clipPath id="clip0_89_606">
<rect width="12.96" height="14.8114" fill="white" transform="translate(0 0.594238)"/>
</clipPath>
</defs>
</svg>
