<svg width="26" height="23" viewBox="0 0 26 23" fill="none" xmlns="http://www.w3.org/2000/svg">
<path d="M13 9.7001V16.9001M16.6 13.3001H9.40005M14.272 4.6721L11.728 2.1281C11.5609 1.96076 11.3625 1.828 11.144 1.7374C10.9255 1.64681 10.6914 1.60015 10.4548 1.6001H4.00005C3.28396 1.6001 2.59721 1.88456 2.09086 2.39091C1.58451 2.89726 1.30005 3.58401 1.30005 4.3001V18.7001C1.30005 19.4162 1.58451 20.1029 2.09086 20.6093C2.59721 21.1156 3.28396 21.4001 4.00005 21.4001H22C22.7161 21.4001 23.4029 21.1156 23.9092 20.6093C24.4156 20.1029 24.7 19.4162 24.7 18.7001V7.9001C24.7 7.18401 24.4156 6.49726 23.9092 5.99091C23.4029 5.48456 22.7161 5.2001 22 5.2001H15.5452C15.068 5.19968 14.6093 5.00976 14.272 4.6721Z" stroke="#D9D9D9" stroke-width="1.8" stroke-linecap="round" stroke-linejoin="round"/>
</svg>
