<svg width="13" height="16" viewBox="0 0 13 16" fill="none" xmlns="http://www.w3.org/2000/svg">
<g clip-path="url(#clip0_89_602)">
<path d="M3.95118 1.10627L3.7429 1.51995H0.965753C0.453718 1.51995 0.0400391 1.93363 0.0400391 2.44567C0.0400391 2.9577 0.453718 3.37138 0.965753 3.37138H12.0743C12.5864 3.37138 13 2.9577 13 2.44567C13 1.93363 12.5864 1.51995 12.0743 1.51995H9.29718L9.0889 1.10627C8.93268 0.790953 8.61158 0.594238 8.26154 0.594238H4.77854C4.4285 0.594238 4.1074 0.790953 3.95118 1.10627ZM12.0743 4.2971H0.965753L1.57904 14.1039C1.62532 14.8358 2.23282 15.4057 2.96472 15.4057H10.0754C10.8073 15.4057 11.4148 14.8358 11.461 14.1039L12.0743 4.2971Z" fill="#F7F6F9" fill-opacity="0.82"/>
</g>
<defs>
<clipPath id="clip0_89_602">
<rect width="12.96" height="14.8114" fill="white" transform="translate(0.0400391 0.594238)"/>
</clipPath>
</defs>
</svg>
