<svg width="24" height="25" viewBox="0 0 24 25"   xmlns="http://www.w3.org/2000/svg">
<path d="M12 1.69995V4.39995M19.6368 4.86315L17.7276 6.77235M22.8 12.5H20.1M19.6368 20.1368L17.7276 18.2276M12 20.6V23.3M6.27235 18.2276L4.36315 20.1368M3.89995 12.5H1.19995M6.27235 6.77235L4.36315 4.86315M16.5 12.5C16.5 13.6934 16.0258 14.838 15.1819 15.6819C14.338 16.5258 13.1934 17 12 17C10.8065 17 9.66188 16.5258 8.81797 15.6819C7.97406 14.838 7.49995 13.6934 7.49995 12.5C7.49995 11.3065 7.97406 10.1619 8.81797 9.31797C9.66188 8.47406 10.8065 7.99995 12 7.99995C13.1934 7.99995 14.338 8.47406 15.1819 9.31797C16.0258 10.1619 16.5 11.3065 16.5 12.5Z" stroke={color} stroke-width="1.8" stroke-linecap="round" stroke-linejoin="round"/>
</svg>
