<svg width="27" height="23" viewBox="0 0 27 23" fill="none" xmlns="http://www.w3.org/2000/svg">
<path d="M1.80005 13.3001H6.43205C6.93341 13.3002 7.42483 13.4399 7.85126 13.7036C8.27769 13.9673 8.62229 14.3444 8.84645 14.7929L9.15365 15.4073C9.3779 15.8559 9.72269 16.2332 10.1494 16.4969C10.576 16.7606 11.0677 16.9002 11.5692 16.9001H15.4308C15.9324 16.9002 16.4241 16.7606 16.8507 16.4969C17.2774 16.2332 17.6222 15.8559 17.8464 15.4073L18.1536 14.7929C18.3779 14.3443 18.7227 13.967 19.1494 13.7033C19.576 13.4396 20.0677 13.3 20.5692 13.3001H25.2M1.80005 13.7057V18.7001C1.80005 19.4162 2.08451 20.1029 2.59086 20.6093C3.09721 21.1156 3.78396 21.4001 4.50005 21.4001H22.5C23.2161 21.4001 23.9029 21.1156 24.4092 20.6093C24.9156 20.1029 25.2 19.4162 25.2 18.7001V13.7057C25.2 13.4369 25.1592 13.1693 25.08 12.9125L22.188 3.5057C22.0182 2.95399 21.676 2.47124 21.2117 2.12828C20.7473 1.78532 20.1853 1.6002 19.608 1.6001H7.39325C6.81599 1.6002 6.25396 1.78532 5.78962 2.12828C5.32529 2.47124 4.98309 2.95399 4.81325 3.5057L1.92005 12.9125C1.84077 13.1694 1.80033 13.4368 1.80005 13.7057Z" stroke="#E8403B" stroke-width="1.8" stroke-linecap="round" stroke-linejoin="round"/>
</svg>
