<svg width="17" height="16" viewBox="0 0 17 16" fill="none" xmlns="http://www.w3.org/2000/svg">
<g clip-path="url(#clip0_89_608)">
<path d="M8.96012 1.77783C6.71568 1.77783 4.91845 2.80005 3.61012 4.01672C2.31012 5.22228 1.44068 6.66672 1.02957 7.65839C0.937899 7.87783 0.937899 8.12228 1.02957 8.34172C1.44068 9.33339 2.31012 10.7778 3.61012 11.9834C4.91845 13.2001 6.71568 14.2223 8.96012 14.2223C11.2046 14.2223 13.0018 13.2001 14.3101 11.9834C15.6101 10.7751 16.4796 9.33339 16.8935 8.34172C16.9851 8.12228 16.9851 7.87783 16.8935 7.65839C16.4796 6.66672 15.6101 5.22228 14.3101 4.01672C13.0018 2.80005 11.2046 1.77783 8.96012 1.77783ZM4.96012 8.00005C4.96012 6.93919 5.38155 5.92177 6.13169 5.17163C6.88184 4.42148 7.89926 4.00005 8.96012 4.00005C10.021 4.00005 11.0384 4.42148 11.7885 5.17163C12.5387 5.92177 12.9601 6.93919 12.9601 8.00005C12.9601 9.06092 12.5387 10.0783 11.7885 10.8285C11.0384 11.5786 10.021 12.0001 8.96012 12.0001C7.89926 12.0001 6.88184 11.5786 6.13169 10.8285C5.38155 10.0783 4.96012 9.06092 4.96012 8.00005ZM8.96012 6.22228C8.96012 7.20283 8.1629 8.00005 7.18234 8.00005C6.98512 8.00005 6.79623 7.96672 6.61845 7.90839C6.46568 7.85839 6.2879 7.95283 6.29345 8.11394C6.30179 8.30561 6.32957 8.49728 6.38234 8.68894C6.7629 10.1112 8.22679 10.9556 9.64901 10.5751C11.0712 10.1945 11.9157 8.73061 11.5351 7.30839C11.2268 6.15561 10.2073 5.38061 9.07401 5.33339C8.9129 5.32783 8.81845 5.50283 8.86845 5.65839C8.92679 5.83616 8.96012 6.02505 8.96012 6.22228Z" fill="#F7F6F9" fill-opacity="0.82"/>
</g>
<defs>
<clipPath id="clip0_89_608">
<rect width="16" height="14.2222" fill="white" transform="translate(0.960083 0.888916)"/>
</clipPath>
</defs>
</svg>
